<svg xmlns="http://www.w3.org/2000/svg" version="1.1" xmlns:xlink="http://www.w3.org/1999/xlink" xmlns:svgjs="http://svgjs.com/svgjs" width="74.54" height="56.92"><svg id="SvgjsSvg1000" data-name="Layer 1" xmlns="http://www.w3.org/2000/svg" viewBox="0 0 74.54 56.92"><defs><style>.cls-1{fill:#fff;}.cls-1,.cls-2,.cls-3{stroke:#231f20;stroke-miterlimit:10;}.cls-2{fill:none;}.cls-3{fill:#231f20;}</style></defs><path class="cls-1" d="M16.45,41.06c-5,10.66-7.22,23.33-4.95,24.27,3.06,1.27,8-21.66,25.92-30,20.44-9.57,44,6.23,44.59,4.62.8-2.07-37.9-27.23-55.65-13.71C21.74,29.71,19.07,35.44,16.45,41.06Z" transform="translate(-10.11 -21.72)"></path><path class="cls-2" d="M129.73,67" transform="translate(-10.11 -21.72)"></path><path class="cls-3" d="M11.83,75.4c0,1.21,13.38,3.21,27.24,2.65,4.15-.17,11.47-1.28,25.93-3.47,18-2.73,19.18-3.17,19.16-3.47-.08-1.14-17.71-1-28.1-.57-9.48.36-17.88,1.31-34.66,3.21C13.88,74.61,11.83,74.93,11.83,75.4Z" transform="translate(-10.11 -21.72)"></path><path class="cls-1" d="M142.45,37.75" transform="translate(-10.11 -21.72)"></path><path class="cls-3" d="M137.66,77.39" transform="translate(-10.11 -21.72)"></path></svg><style>@media (prefers-color-scheme: light) { :root { filter: none; } }
</style></svg>