<?xml version="1.0" encoding="utf-8"?>
<!-- Generator: Adobe Illustrator 25.0.0, SVG Export Plug-In . SVG Version: 6.00 Build 0)  -->
<svg version="1.1" id="SvgjsSvg1000" xmlns:svgjs="http://svgjs.com/svgjs"
	 xmlns="http://www.w3.org/2000/svg" xmlns:xlink="http://www.w3.org/1999/xlink" x="0px" y="0px" viewBox="0 0 74.5 56.9"
	 style="enable-background:new 0 0 74.5 56.9;" xml:space="preserve">
<style type="text/css">
	.st0{fill:#FFFFFF;stroke:#231F20;stroke-miterlimit:10;}
	.st1{fill:none;stroke:#231F20;stroke-miterlimit:10;}
	.st2{fill:#231F20;stroke:#231F20;stroke-miterlimit:10;}
</style>
<path class="st0" d="M6.3,19.3C1.3,30-0.9,42.7,1.4,43.6c3.1,1.3,8-21.7,25.9-30c20.4-9.6,44,6.2,44.6,4.6C72.7,16.2,34-9,16.3,4.5
	C11.6,8,9,13.7,6.3,19.3z"/>
<path class="st1" d="M119.6,45.3"/>
<path class="st2" d="M1.7,53.7c0,1.2,13.4,3.2,27.2,2.7c4.2-0.2,11.5-1.3,25.9-3.5c18-2.7,19.2-3.2,19.2-3.5
	c-0.1-1.1-17.7-1-28.1-0.6c-9.5,0.4-17.9,1.3-34.7,3.2C3.8,52.9,1.7,53.2,1.7,53.7z"/>
<path class="st0" d="M132.3,16"/>
<path class="st2" d="M127.6,55.7"/>
</svg>
